<svg width="161" height="36" viewBox="0 0 161 36" xmlns="http://www.w3.org/2000/svg" xmlns:xlink="http://www.w3.org/1999/xlink">
    <defs>
        <path d="M8.25 1.858 1.867 8.215a6.325 6.325 0 0 0 0 8.973l16.147 16.079a6.392 6.392 0 0 0 9.013 0l6.384-6.357a6.326 6.326 0 0 0 0-8.974L17.263 1.858A6.368 6.368 0 0 0 12.757 0C11.126 0 9.495.62 8.25 1.858z" id="7f1n8hkv7a"/>
        <path d="M1.555 18.748a5.272 5.272 0 0 0 0 7.478l8.26 8.225a5.327 5.327 0 0 0 7.511 0l17.275-17.2a5.272 5.272 0 0 0 0-7.478L26.34 1.55A5.305 5.305 0 0 0 22.584 0c-1.359 0-2.718.516-3.755 1.549l-17.275 17.2z" id="xpvo17cp9c"/>
        <path d="M17.612 1.084 1.09 17.536a3.69 3.69 0 0 0 0 5.235l7.51 7.478a3.728 3.728 0 0 0 5.258 0L30.38 13.797a3.69 3.69 0 0 0 0-5.235l-7.51-7.478A3.715 3.715 0 0 0 20.24 0c-.95 0-1.902.361-2.628 1.084z" id="pebvye5kpe"/>
        <path d="M.664.662a2.251 2.251 0 0 0 0 3.193l3.591 3.576 3.208-3.194L3.872.662A2.265 2.265 0 0 0 2.268 0c-.58 0-1.16.22-1.604.662z" id="zizpu8vfsg"/>
        <path d="M.664.662a2.251 2.251 0 0 0 0 3.193l4.5 4.48L8.37 5.143 3.872.662A2.266 2.266 0 0 0 2.268 0C1.688 0 1.107.22.664.662z" id="m6jo7yrtci"/>
        <path d="M.664.662a2.251 2.251 0 0 0 0 3.193L.9 4.09a2.609 2.609 0 0 0 3.677 0l1.37-1.363L3.872.662A2.268 2.268 0 0 0 2.268 0C1.688 0 1.107.22.664.662z" id="m8nmbuetzk"/>
        <path d="M.664.662a2.252 2.252 0 0 0 0 3.194l5.531 5.507 3.208-3.194L3.872.662A2.267 2.267 0 0 0 2.268 0c-.58 0-1.16.22-1.604.662z" id="mrsoth1etm"/>
        <path d="M0 5.044 3.384 7.79c.666.597 1.559.92 2.464.951.828.029 1.666-.185 2.35-.652.774-.529 1.254-1.323 1.316-2.182.061-.846-.289-1.685-.968-2.308L5.392.745 4.56 0 0 5.044z" id="52nyn3bi5o"/>
    </defs>
    <g fill="none" fill-rule="evenodd">
        <g transform="translate(0 .437)">
            <mask id="i7r1bdflzb" fill="#fff">
                <use xlink:href="#7f1n8hkv7a"/>
            </mask>
            <path fill="#2D63E0" mask="url(#i7r1bdflzb)" d="m-19.197 17.657 37.012-36.851 37.011 36.851L17.815 54.51z"/>
        </g>
        <g transform="translate(8.95)">
            <mask id="3gl27a8eid" fill="#fff">
                <use xlink:href="#xpvo17cp9c"/>
            </mask>
            <path fill="#FFF" mask="url(#3gl27a8eid)" d="m18.078-19.267 37.655 37.493-37.655 37.492-37.655-37.492z"/>
        </g>
        <g transform="translate(11.293 2.334)">
            <mask id="sbwsifhy5f" fill="#fff">
                <use xlink:href="#pebvye5kpe"/>
            </mask>
            <path fill="#2E2E2E" mask="url(#sbwsifhy5f)" d="M15.735-17.147 48.69 15.666 15.735 48.48l-32.956-32.814z"/>
        </g>
        <g transform="translate(30.454 18.623)">
            <mask id="p0t51iet2h" fill="#fff">
                <use xlink:href="#zizpu8vfsg"/>
            </mask>
            <path fill="#2D63E0" mask="url(#p0t51iet2h)" d="m3.62-4.804 8.446 8.41-8.445 8.408-8.446-8.409z"/>
        </g>
        <g transform="translate(22.532 24.702)">
            <mask id="x7pxkh4dtj" fill="#fff">
                <use xlink:href="#m6jo7yrtci"/>
            </mask>
            <path fill="#2D63E0" mask="url(#x7pxkh4dtj)" d="m4.075-5.256 9.354 9.313-9.354 9.314-9.354-9.314z"/>
        </g>
        <g transform="translate(21.45 30.61)">
            <mask id="9ad7shs5zl" fill="#fff">
                <use xlink:href="#m8nmbuetzk"/>
            </mask>
            <path fill="#2D63E0" mask="url(#9ad7shs5zl)" d="M2.862-4.048 9.379 2.44 2.862 8.928-3.655 2.44z"/>
        </g>
        <g transform="translate(25.007 20.183)">
            <mask id="ojvi1nagfn" fill="#fff">
                <use xlink:href="#mrsoth1etm"/>
            </mask>
            <path fill="#2D63E0" mask="url(#ojvi1nagfn)" d="M4.59-5.77 14.978 4.571 4.59 14.912-5.795 4.572z"/>
        </g>
        <g transform="translate(16.964 6.598)">
            <mask id="pvretkux8p" fill="#fff">
                <use xlink:href="#52nyn3bi5o"/>
            </mask>
            <path fill="#2D63E0" mask="url(#pvretkux8p)" d="m-.508-.887 10.948.38-.357 10.164-10.947-.38z"/>
        </g>
        <g fill="#FFF">
            <path d="m56.854 13.144-2.498 6.864h4.974l-2.476-6.864zm4.299 12.203-.946-2.58h-6.706l-.945 2.58h-3.511l5.806-14.962h4.006l5.784 14.962h-3.488zM66.328 25.346h2.858V10.385h-2.858zM74.632 18.909h5.356c-.068-1.032-.788-2.4-2.678-2.4-1.778 0-2.543 1.323-2.678 2.4m2.678-4.666c3.24 0 5.446 2.422 5.446 5.966v.629h-8.08c.18 1.368 1.283 2.512 3.129 2.512 1.013 0 2.205-.404 2.903-1.077l1.26 1.84c-1.102 1.01-2.79 1.502-4.478 1.502-3.309 0-5.807-2.22-5.807-5.697 0-3.14 2.318-5.675 5.627-5.675M91.172 25.346l-2.476-3.656-2.498 3.656h-3.173l3.848-5.563-3.623-5.271h3.196l2.25 3.342 2.228-3.342h3.196l-3.646 5.271 3.894 5.563zM102.806 13.121h-3.398v4.128h3.398c1.26 0 2.206-.808 2.206-2.064 0-1.234-.945-2.064-2.206-2.064zm-6.594 12.225V10.385h7.022c3.263 0 5.041 2.198 5.041 4.822 0 2.603-1.8 4.778-5.041 4.778h-3.826v5.361h-3.196zM117.906 25.346v-6.595c0-1.502-.788-1.974-2.025-1.974-1.103 0-1.981.629-2.476 1.279v7.29h-2.858V10.385h2.858v5.54c.698-.83 2.048-1.682 3.826-1.682 2.385 0 3.533 1.3 3.533 3.41v7.693h-2.858zM131.79 19.918c0-1.682-1.012-3.14-2.79-3.14s-2.768 1.458-2.768 3.14c0 1.705.99 3.163 2.768 3.163 1.778 0 2.79-1.458 2.79-3.163m-8.529 0c0-3.073 2.16-5.675 5.74-5.675 3.6 0 5.76 2.602 5.76 5.675 0 3.096-2.16 5.697-5.76 5.697-3.58 0-5.74-2.601-5.74-5.697M144.572 25.346v-6.55c0-1.503-.787-2.019-2.002-2.019-1.126 0-2.004.629-2.476 1.279v7.29h-2.858V14.512h2.858v1.413c.697-.83 2.025-1.682 3.803-1.682 2.386 0 3.534 1.346 3.534 3.454v7.65h-2.859zM152.876 18.909h5.356c-.067-1.032-.788-2.4-2.678-2.4-1.778 0-2.543 1.323-2.678 2.4m2.678-4.666c3.24 0 5.446 2.422 5.446 5.966v.629h-8.08c.181 1.368 1.284 2.512 3.13 2.512 1.012 0 2.204-.404 2.902-1.077l1.26 1.84c-1.102 1.01-2.79 1.502-4.478 1.502-3.308 0-5.806-2.22-5.806-5.697 0-3.14 2.318-5.675 5.626-5.675"/>
        </g>
    </g>
</svg>
